<svg id="Layer_1" data-name="Layer 1" xmlns="http://www.w3.org/2000/svg" viewBox="0 0 3995.85 446.19"><defs><style>.cls-1{fill:#fbb040;}</style></defs><path class="cls-1" d="M557.42,1387.94v-58.07H875.26v58.07Zm127.13,375.9v-434h63.57v434Z" transform="translate(-557.42 -1323.76)"/><path class="cls-1" d="M913.46,1763.84l125.3-434h88.62l125.3,434h-64.17l-102.69-381.4h-5.5l-102.69,381.4Zm58.06-105.74V1600h220v58.07Z" transform="translate(-557.42 -1323.76)"/><path class="cls-1" d="M1312.28,1763.84v-434h63.57v434Zm38.51-138.14,5.5-60.51q47.06,0,81.29-19.71A166.57,166.57,0,0,0,1494,1492.3q22.15-33.45,33-75.48a346.54,346.54,0,0,0,10.85-87h63a366,366,0,0,1-16.8,110.94q-16.82,53.18-48.9,94.89a234.3,234.3,0,0,1-78.54,65.86Q1410.06,1625.71,1350.79,1625.7Zm196.81,138.14-110-211.48,55-31.18,129,242.66Z" transform="translate(-557.42 -1323.76)"/><path class="cls-1" d="M1801.56,1770a380.24,380.24,0,0,1-69.22-6,275.51,275.51,0,0,1-59.75-17.88l8-61.73a405.13,405.13,0,0,0,64.94,21.85,261.42,261.42,0,0,0,61,7.49q42.78,0,63.57-15t20.78-45.53q0-38.81-39.73-56.84l-75.18-34.23q-44.31-20.17-68-48.6T1684.21,1443q0-56.85,34.22-88t96.88-31.17q43.71,0,77.32,12.84t64.79,41.86l-42.78,43.4q-26.9-22-50.28-31.93a123.42,123.42,0,0,0-48.74-9.94q-31.48,0-48.75,15.13t-17.26,44.77q0,21.09,11.3,34.38t33.32,23.69l63.56,30q48.29,22.62,73.35,51t25.06,73q0,59-38.36,88.47T1801.56,1770Z" transform="translate(-557.42 -1323.76)"/><path class="cls-1" d="M2042.69,1763.84v-434h63.56v434Zm12.83-187v-58.07h257v58.07Zm204.76,187v-434h63.57v434Z" transform="translate(-557.42 -1323.76)"/><path class="cls-1" d="M2535,1770a380.32,380.32,0,0,1-69.22-6,275.42,275.42,0,0,1-59.74-17.88l7.94-61.73a405.23,405.23,0,0,0,64.95,21.85,261.35,261.35,0,0,0,61,7.49q42.78,0,63.56-15t20.78-45.53q0-38.81-39.73-56.84l-75.18-34.23q-44.31-20.17-68-48.6T2417.67,1443q0-56.85,34.23-88t96.88-31.17q43.69,0,77.32,12.84t64.79,41.86l-42.79,43.4q-26.89-22-50.27-31.93a123.5,123.5,0,0,0-48.75-9.94q-31.47,0-48.74,15.13t-17.27,44.77q0,21.09,11.31,34.38t33.31,23.69l63.57,30q48.28,22.62,73.34,51t25.06,73q0,59-38.35,88.47T2535,1770Z" transform="translate(-557.42 -1323.76)"/><path class="cls-1" d="M2776.15,1763.84v-434h63.57v434Zm12.84-187v-58.07h257v58.07Zm204.76,187v-434h63.56v434Z" transform="translate(-557.42 -1323.76)"/><path class="cls-1" d="M3149,1763.84v-434h63.56v434Zm0-375.9v-58.07h287.27v58.07Zm0,187.64v-58.06h232.26v58.06Zm0,188.26v-58.07h287.27v58.07Z" transform="translate(-557.42 -1323.76)"/><path class="cls-1" d="M3515.73,1763.84v-434h63.57v434Zm0-375.9v-58.07H3803v58.07Zm0,187.64v-58.06H3748v58.06Zm0,188.26v-58.07H3803v58.07Z" transform="translate(-557.42 -1323.76)"/><path class="cls-1" d="M3882.46,1763.84v-434H3946v434Zm0,0v-58.07h287.27v58.07Z" transform="translate(-557.42 -1323.76)"/><path class="cls-1" d="M4214.05,1763.84l125.3-434H4428l125.3,434H4489.1l-102.69-381.4h-5.5l-102.68,381.4Zm58.06-105.74V1600h220v58.07Z" transform="translate(-557.42 -1323.76)"/></svg>